<?xml version="1.0" encoding="utf-8"?>
<!-- Generator: Adobe Illustrator 16.0.0, SVG Export Plug-In . SVG Version: 6.00 Build 0)  -->
<!DOCTYPE svg PUBLIC "-//W3C//DTD SVG 1.1//EN" "http://www.w3.org/Graphics/SVG/1.1/DTD/svg11.dtd">
<svg version="1.1" id="Layer_1" xmlns="http://www.w3.org/2000/svg" xmlns:xlink="http://www.w3.org/1999/xlink" x="0px" y="0px"
	 width="40.812px" height="40.812px" viewBox="0 0 40.812 40.812" enable-background="new 0 0 40.812 40.812" xml:space="preserve">
<g>
	<path fill="#000000" d="M1.105,26.176v12.863l5.021-5.018l0.075-0.074l0.062,0.084l0.222,0.291l0.048,0.062l-0.056,0.059
		l-5.325,5.33h10.389l-4.358-5.678l6.418-6.418l5.965,12.096h0.045h8.628l-1.615-6.049l7.107,3.506l0.166,2.543h0.006h5.559
		l-4.984-2.459l-0.047-0.023l-0.006-0.053l-0.025-0.422l-0.01-0.156l0.141,0.068l5.432,2.676V23.764l-7.113-1.906
		c-0.107-0.035-0.143-0.104-0.15-0.137c-0.009-0.035-0.016-0.104,0.043-0.17l7.223-10.812V9.156L32.01,8.634
		c-0.137-0.039-0.174-0.119-0.184-0.165c-0.012-0.046-0.014-0.137,0.086-0.231l7.32-7.321h-7.791l0.455,6.905L20.259,7.055
		l9.19-6.143H17.434l1.78,6.646l0.019,0.062L19.179,7.66L8.544,14.771l13.027,3.479l0.154,0.041l-0.115,0.111l-0.301,0.293
		l-0.037,0.037l-0.05-0.016L1.105,13.353v6.437l6.472-4.325l5.012,10.162L1.105,19.961v1.127v0.045l11.751,5.8l-6.319,6.318
		L1.105,26.176z M3.286,6.204L1.105,1.77v4.291L3.286,6.204z M4.208,6.819l3.776,7.655l10.102-6.749L4.208,6.819z M3.582,6.797
		l-0.01-0.021H3.568L1.105,6.611v6.164l6.256,1.678L3.582,6.797z M18.55,7.196l-1.688-6.282H1.293l2.624,5.312l0.008,0.02
		l0.562,0.038L18.55,7.196z M39.959,8.606V0.962l-7.174,7.171L39.959,8.606z M33.471,21.452l6.486,1.736V11.736L33.471,21.452z
		 M40.561,0.312v0.091v39.88v0.092h-0.09H0.592H0.5v-0.092V0.403V0.312h0.092H40.47H40.561z M22.797,19.42l3.162,11.828l6.225-9.316
		L22.797,19.42z M33.648,36.016l-0.859-13.103l-6.367,9.539L33.648,36.016z M20.538,39.373l4.345-6.51l-9.979-4.924L20.538,39.373z
		 M32.66,20.971L31.9,9.376l-8.986,8.988L32.66,20.971z M21.735,19.508l-7.096,7.128l10.388,5.186L21.735,19.508z M22.176,17.614
		l-2.554-9.547l11.354,0.747L22.176,17.614z"/>
</g>
</svg>
